<?xml version="1.0" encoding="UTF-8"?><svg xmlns="http://www.w3.org/2000/svg" width="217.65" height="184.27" viewBox="0 0 217.65 184.27"><g id="Layer_2"><rect x="25.01" width="184.27" height="184.27" style="fill:#e3e3e3;"/></g><g id="Layer_1"><g id="_EMMA_S.M_LARSEN_" style="isolation:isolate;"><g style="isolation:isolate;"><path d="m45.66,24.88h-11.37v6.15h10.74v8.1h-10.74v6.35h11.37v8.1h-20.94V16.78h20.94v8.1Z"/><path d="m50.89,53.58l6.25-36.8h9.47l7.37,19.62,7.32-19.62h9.47l6.25,36.8h-9.52l-3.17-21.18-8.69,21.18h-3.81l-8.25-21.18-3.17,21.18h-9.52Z"/><path d="m101.4,53.58l6.25-36.8h9.47l7.37,19.62,7.32-19.62h9.47l6.25,36.8h-9.52l-3.17-21.18-8.69,21.18h-3.81l-8.25-21.18-3.17,21.18h-9.52Z"/><path d="m176.13,47.19h-13.67l-2.2,6.39h-10.2l14.01-36.8h10.45l14.01,36.8h-10.2l-2.2-6.39Zm-2.54-7.27l-4.3-12.25-4.3,12.25h8.59Z"/></g><g style="isolation:isolate;"><path d="m19.71,80.24c-.94-.76-1.88-1.33-2.82-1.69-.94-.37-1.85-.55-2.73-.55-1.12,0-2.02.26-2.73.79-.7.53-1.06,1.22-1.06,2.07,0,.59.18,1.07.53,1.45.35.38.81.71,1.39.99.57.28,1.22.52,1.94.73.72.21,1.43.43,2.13.66,2.82.94,4.88,2.19,6.18,3.76,1.31,1.57,1.96,3.62,1.96,6.14,0,1.7-.29,3.24-.86,4.62s-1.41,2.56-2.51,3.54c-1.1.98-2.45,1.75-4.05,2.29-1.6.54-3.41.81-5.43.81-4.2,0-8.08-1.25-11.66-3.74l3.7-6.95c1.29,1.14,2.57,2,3.83,2.55,1.26.56,2.51.84,3.74.84,1.41,0,2.46-.32,3.15-.97s1.03-1.38,1.03-2.2c0-.5-.09-.93-.26-1.3-.18-.37-.47-.7-.88-1.01-.41-.31-.95-.59-1.61-.86-.66-.26-1.46-.56-2.4-.88-1.12-.35-2.21-.74-3.28-1.17-1.07-.42-2.02-.99-2.86-1.69s-1.51-1.59-2.02-2.66c-.51-1.07-.77-2.43-.77-4.07s.27-3.13.81-4.47c.54-1.33,1.3-2.48,2.29-3.43s2.19-1.69,3.61-2.22c1.42-.53,3.01-.79,4.77-.79,1.64,0,3.36.23,5.15.68,1.79.46,3.5,1.12,5.15,2l-3.43,6.73Z"/><path d="m28.78,100.7c0-.7.13-1.37.4-2,.26-.63.63-1.18,1.1-1.65s1.02-.84,1.65-1.1c.63-.26,1.3-.4,2-.4s1.37.13,2,.4c.63.26,1.18.63,1.65,1.1.47.47.84,1.02,1.1,1.65.26.63.4,1.3.4,2s-.13,1.37-.4,2c-.26.63-.63,1.18-1.1,1.65s-1.02.84-1.65,1.1c-.63.26-1.3.4-2,.4s-1.37-.13-2-.4c-.63-.26-1.18-.63-1.65-1.1-.47-.47-.84-1.02-1.1-1.65-.26-.63-.4-1.3-.4-2Z"/><path d="m43.38,104.93l5.63-33.18h8.54l6.64,17.69,6.6-17.69h8.54l5.63,33.18h-8.58l-2.86-19.1-7.83,19.1h-3.43l-7.44-19.1-2.86,19.1h-8.58Z"/></g><g style="isolation:isolate;"><path d="m33.95,126.06v28.08h11.22v7.93h-20.58v-36h9.36Z"/><path d="m73.54,155.81h-13.37l-2.15,6.26h-9.98l13.7-36h10.22l13.7,36h-9.98l-2.15-6.26Zm-2.48-7.12l-4.2-11.99-4.2,11.99h8.4Z"/><path d="m119.71,162.07h-11.65l-8.93-13.85v13.85h-9.36v-36h14.56c2.01,0,3.76.29,5.25.88,1.5.59,2.73,1.39,3.7,2.41s1.7,2.2,2.2,3.53c.49,1.34.74,2.77.74,4.3,0,2.74-.66,4.96-1.98,6.66-1.32,1.7-3.27,2.86-5.85,3.46l11.32,14.76Zm-20.58-19.91h1.77c1.85,0,3.26-.38,4.25-1.15s1.48-1.86,1.48-3.29-.49-2.53-1.48-3.29c-.99-.76-2.4-1.15-4.25-1.15h-1.77v8.88Z"/><path d="m143.4,135.28c-1.02-.83-2.04-1.44-3.06-1.84-1.02-.4-2.01-.6-2.96-.6-1.21,0-2.2.29-2.96.86-.76.57-1.15,1.32-1.15,2.24,0,.64.19,1.16.57,1.58.38.41.88.77,1.5,1.07.62.3,1.32.57,2.1.79.78.22,1.55.46,2.32.72,3.06,1.02,5.29,2.38,6.71,4.08,1.42,1.7,2.12,3.92,2.12,6.66,0,1.85-.31,3.52-.93,5.01s-1.53,2.78-2.72,3.84c-1.19,1.07-2.66,1.89-4.39,2.48-1.74.59-3.7.88-5.9.88-4.55,0-8.77-1.35-12.65-4.06l4.01-7.54c1.4,1.24,2.79,2.17,4.15,2.77,1.37.61,2.72.91,4.06.91,1.53,0,2.67-.35,3.41-1.05s1.12-1.5,1.12-2.39c0-.54-.1-1.01-.29-1.41-.19-.4-.51-.76-.96-1.1-.45-.33-1.03-.64-1.74-.93-.72-.29-1.58-.6-2.6-.95-1.21-.38-2.4-.8-3.56-1.27-1.16-.46-2.2-1.07-3.1-1.84s-1.64-1.73-2.2-2.89c-.56-1.16-.84-2.63-.84-4.42s.29-3.4.88-4.85c.59-1.45,1.42-2.69,2.48-3.72s2.37-1.84,3.92-2.41c1.54-.57,3.27-.86,5.18-.86,1.78,0,3.64.25,5.59.74,1.94.49,3.8,1.22,5.59,2.17l-3.73,7.31Z"/><path d="m174.96,133.99h-11.13v6.02h10.5v7.93h-10.5v6.21h11.13v7.93h-20.49v-36h20.49v7.93Z"/><path d="m181.69,162.07v-36h9.36l17.29,22.01v-22.01h9.31v36h-9.31l-17.29-22.01v22.01h-9.36Z"/></g></g></g></svg>